# xmcd
#
# Track frame offsets:
#	150
#	11137
#	19573
#	32452
#	47012
#	57879
#	69789
#	82521
#	95937
#	109966
#	122560
#	136136
#	147205
#	155412
#	165751
#	173634
#	182218
#	190155
#	198612
#	207870
#	217030
#	227307
#	236111
#	246752
#	255657
#	271014
#	281790
#	292456
#	303986
#	315831
#
# Disc length: 4343 seconds
#
# Revision: 0
# Processed by: cddbd v1.4PL0 Copyright (c) Steve Scherf et al.
# Submitted via: EasyCDDAExtractor 4.6.9.1
#
DISCID=9c10f51e
DTITLE=Variopus Artists - Best of Country Stars
DYEAR=1900
DGENRE=Country
TTITLE0=Bed of Roses
TTITLE1=Whatever Happened to Randolph Scott?
TTITLE2=Do You Remember These?
TTITLE3=Carry Me Back
TTITLE4=Flowers on the Wall
TTITLE5=Class of '57
TTITLE6=I'll Go To My Gave Loving You
TTITLE7=Pictures
TTITLE8=Thank You World
TTITLE9=New York City
TTITLE10=Susan When She Tried
TTITLE11=King of the Road
TTITLE12=Dang Me
TTITLE13=Engine,Engine #9
TTITLE14=In The Summertime
TTITLE15=You Can't Rollerskate in a Buffalo Herd
TTITLE16=Do Wacka Do
TTITLE17=England Swings
TTITLE18=Chug - a - Lug
TTITLE19=One Dying and a Burying
TTITLE20=Kansas City Star
TTITLE21=Atta Boy, Girl
TTITLE22=That's Old Fashioned
TTITLE23=Crying in the Rain
TTITLE24=Don;t Blame Me
TTITLE25=Cathy's Clown
TTITLE26=Walk Right Back
TTITLE27=Lucille
TTITLE28=So Sad to Watch Good Love Go Bad
TTITLE29=Temptation
EXTD=
EXTT0=
EXTT1=
EXTT2=
EXTT3=
EXTT4=
EXTT5=
EXTT6=
EXTT7=
EXTT8=
EXTT9=
EXTT10=
EXTT11=
EXTT12=
EXTT13=
EXTT14=
EXTT15=
EXTT16=
EXTT17=
EXTT18=
EXTT19=
EXTT20=
EXTT21=
EXTT22=
EXTT23=
EXTT24=
EXTT25=
EXTT26=
EXTT27=
EXTT28=
EXTT29=
PLAYORDER=
